# xmcd CD database file
#
# Track frame offsets:
#	150
#	14456
#	30084
#	48504
#	64976
#	82350
#	100206
#	115777
#	134574
#	151599
#	167031
#	191123
#	220285
#	239771
#	256780
#	274408
#	303233
#	320979
#
# Disc length: 4485 seconds
#
# Revision: 2
# Processed by: cddbd v1.4b41PL1 Copyright (c) Steve Scherf et al.
# Submitted via: Feurio! 1.50.2ß - http://www.feurio.com
#
DISCID=09118312
DTITLE=Various Artist - Neues Projekt
DYEAR=1900
DGENRE=
TTITLE0=Blank And Jones - DJ Culture
TTITLE1=Corrs - Breathless
TTITLE2=sash - with my own eyes
TTITLE3=Marque - Electronic Lady
TTITLE4=Lutricia McNeal - Fly Away
TTITLE5=Lena Marlin - Unforgivable Sinner
TTITLE6=Say Colour - It´s Summer In My Heart
TTITLE7=Bastiaan Ragas - You complete me
TTITLE8=Darude - Sandstorm
TTITLE9=Mauro Picotto - Komodo [Radio Edit]
TTITLE10=Modjo - Lady3
TTITLE11=ATB feat. York - The Fields Of Love
TTITLE12=Darude - Feel The Beat (Radio Version)
TTITLE13=Vanessa Amorosi - Absolutely Everybody
TTITLE14=Westlife - Fool Again
TTITLE15=Beam Vs. Cyrus - Thunder In Paradise
TTITLE16=Ronan Keating - Life is a Rollercoaster
TTITLE17=Britney Spears - Lucky
EXTD=
EXTT0=http://ahhh.b4.to
EXTT1=http://www.oldieman.com
EXTT2=
EXTT3=http://ahhh.b4.to
EXTT4=
EXTT5=
EXTT6=http://ahhh.b4.to
EXTT7=
EXTT8=http://ahhh.b4.to
EXTT9=
EXTT10=
EXTT11=charthitz.thx.to
EXTT12=http://surf.to/tranceplaza !!
EXTT13=http://i.am/musiclover
EXTT14=www.x-raid.nu - www.x-raid.nu
EXTT15=AIM: mRoiZo83 ICQ: 40111117
EXTT16=
EXTT17=
PLAYORDER=
